<?xml version="1.0" encoding="iso-8859-1"?>
<!-- Generator: Adobe Illustrator 19.0.0, SVG Export Plug-In . SVG Version: 6.00 Build 0)  -->
<svg xmlns="http://www.w3.org/2000/svg" xmlns:xlink="http://www.w3.org/1999/xlink" version="1.1" id="Layer_1" x="0px" y="0px" viewBox="0 0 512 512" style="enable-background:new 0 0 512 512;" xml:space="preserve" width="512px" height="512px">
<g>
	<g>
		<g>
			<path d="M512,182.537c0-8.211-7.102-10.451-15.922-10.51c-6.905-5.58-15.682-8.932-25.233-8.932     c-7.83,0-19.463-14.512-27.956-25.109c-0.854-1.065-1.703-2.125-2.545-3.169c-3.143-4.382-6.715-8.493-10.621-12.226     c-0.119-0.125-0.24-0.248-0.359-0.366c-0.17-0.166-0.348-0.325-0.53-0.477c-14.031-13.043-31.938-21.066-50.89-22.874     c-7.824-10.93-20.491-17.55-34.078-17.55c-5.411,0-10.708,1.051-15.742,3.122c-17.807,7.332-27.982,25.927-25.157,44.68     c-12.426,10.96-26.165,11.097-26.314,11.097H126.495c-0.568,0-1.124,0.057-1.661,0.163c-1.983-0.111-3.763-0.163-5.479-0.163     c-17.303,0-33.651,4.158-48.104,11.524c-6.82-11.281-19.184-18.548-32.866-18.548C17.22,133.201,0,150.42,0,171.585     c-0.001,14.814,8.448,27.928,21.136,34.303c-5.203,12.526-8.081,26.251-8.081,40.638v158.022     c0,14.406,11.721,26.125,26.127,26.125h101.533c4.69,0,8.49-3.8,8.49-8.49c0-12.836-8.487-23.725-20.144-27.352v-42.006h87.822     v51.723c0,14.406,11.721,26.125,26.126,26.125h100.65c4.69,0,8.49-3.8,8.49-8.49c0-12.836-8.487-23.725-20.144-27.352V337.57     c0-12.173,6.497-27.93,16.956-41.123c11.029-13.912,24.59-22.975,37.238-24.894c37.993-3.663,91.312-19.327,111.532-38.332     c0.293-0.265,0.584-0.538,0.873-0.811c0.018-0.018,0.036-0.035,0.055-0.054c8.001-7.664,12.408-17.975,12.408-29.04     c0-4.728-0.826-9.266-2.332-13.482C510.674,187.833,512,185.38,512,182.537z M16.98,171.586c0-11.802,9.602-21.404,21.405-21.404     c7.681,0,14.609,4.113,18.395,10.469c-11.129,8.132-20.625,18.37-27.895,30.124C21.746,187.246,16.979,179.898,16.98,171.586z      M112.081,400.666c-2.977-2.612-6.488-4.631-10.358-5.834v-42.006h10.358V400.666z M120.562,413.693     c-0.349-1.12-0.76-2.211-1.237-3.268c0.406,0.06,0.822,0.102,1.246,0.102c3.084,0,5.891,1.203,7.977,3.166H120.562z      M243.008,413.693c-5.043,0-9.146-4.102-9.146-9.144v-51.723h9.474v51.723c0,3.216,0.589,6.297,1.655,9.144H243.008z      M486.896,220.108c-0.005,0.005-0.009,0.009-0.014,0.012c-0.192,0.182-0.386,0.363-0.582,0.54     c-0.052,0.046-0.103,0.094-0.154,0.141c-15.428,14.57-62.041,30.079-101.786,33.869c-0.14,0.014-0.281,0.029-0.421,0.051     c-37.115,5.419-68.917,50.084-68.917,82.848v64.467c0,4.69,3.8,8.49,8.49,8.49c3.084,0,5.891,1.203,7.977,3.166h-62.029     c-5.043,0-9.146-4.102-9.146-9.144v-60.213c0-4.69-3.8-8.49-8.49-8.49H93.23c-4.69,0-8.49,3.8-8.49,8.49v57.702     c0,4.69,3.8,8.49,8.49,8.49c3.084,0,5.891,1.203,7.978,3.166H39.181c-5.043,0-9.147-4.102-9.147-9.144V246.526     c0-49.252,40.069-89.32,89.32-89.32c1.931,0,4.008,0.084,6.536,0.264c0.949,0.067,1.886-0.026,2.785-0.264h147.978     c2.382,0,23.778-0.539,41.459-19.106l0.307-0.321c2.043-2.167,2.802-5.247,1.998-8.114c-3.39-12.102,2.702-24.789,14.171-29.512     c2.974-1.224,6.095-1.844,9.278-1.844c9.032,0,17.384,4.93,21.798,12.868c1.435,2.579,4.106,4.228,7.055,4.356     c16.716,0.719,32.654,7.452,44.878,18.959c0.035,0.033,0.071,0.066,0.106,0.098l0.002,0.002c0.06,0.061,0.12,0.119,0.181,0.178     c3.238,3.081,6.192,6.484,8.781,10.116c0.099,0.139,0.203,0.275,0.308,0.406c0.881,1.091,1.769,2.198,2.664,3.315     c12.4,15.471,25.224,31.47,41.205,31.47c3.056,0,5.969,0.608,8.644,1.684c-0.015,0.259-0.043,0.505-0.043,0.775     c0,6.882,7.759,11.484,13.228,12.874c0.898,2.472,1.413,5.126,1.413,7.904C494.086,209.712,491.532,215.675,486.896,220.108z" fill="#40DD74"/>
			<circle cx="422.332" cy="158.912" r="7.702" fill="#40DD74"/>
			<path d="M335.706,103.516c-10.796,4.442-16.729,15.927-14.108,27.31c0.904,3.928,4.4,6.586,8.266,6.586     c0.632,0,1.272-0.071,1.913-0.219c4.569-1.053,7.42-5.609,6.368-10.179c-0.748-3.25,0.943-6.529,4.022-7.796     c3.081-1.268,6.587-0.132,8.338,2.701c2.468,3.986,7.7,5.219,11.687,2.753c3.987-2.468,5.22-7.7,2.753-11.687     C358.8,103.056,346.505,99.071,335.706,103.516z" fill="#40DD74"/>
		</g>
	</g>
</g>
<g>
</g>
<g>
</g>
<g>
</g>
<g>
</g>
<g>
</g>
<g>
</g>
<g>
</g>
<g>
</g>
<g>
</g>
<g>
</g>
<g>
</g>
<g>
</g>
<g>
</g>
<g>
</g>
<g>
</g>
</svg>
