<?xml version="1.0" encoding="iso-8859-1"?>
<!-- Generator: Adobe Illustrator 19.0.0, SVG Export Plug-In . SVG Version: 6.00 Build 0)  -->
<svg xmlns="http://www.w3.org/2000/svg" xmlns:xlink="http://www.w3.org/1999/xlink" version="1.1" id="Layer_1" x="0px" y="0px" viewBox="0 0 512 512" style="enable-background:new 0 0 512 512;" xml:space="preserve" width="512px" height="512px">
<g>
	<g>
		<g>
			<circle cx="78.531" cy="202.868" r="8.382" fill="#FFFFFF"/>
			<circle cx="210.336" cy="202.868" r="8.382" fill="#FFFFFF"/>
			<path d="M511.103,156.254c-14.422-28.7-43.308-46.528-75.386-46.528c-22.157,0-43.082,8.529-58.924,24.012     c-15.581,15.231-24.557,35.531-25.336,57.251c-0.053,0.381-0.08,0.77-0.08,1.165v83.972     c-15.216-25.046-37.248-45.6-63.978-59.097c-4.525-18.575-12.547-35.651-23.266-50.584l-9.154-89.634     c-0.589-5.768-3.553-10.35-8.134-12.569c-4.582-2.218-10.014-1.707-14.904,1.405l-64.478,41.004     c-7.528-1.197-15.221-1.823-23.03-1.823s-15.503,0.626-23.03,1.823L56.928,65.647c-4.892-3.112-10.325-3.626-14.906-1.407     c-4.581,2.22-7.546,6.802-8.134,12.568l-9.154,89.634c-11.832,16.482-20.381,35.573-24.567,56.411     c-0.906,4.512,1.978,8.916,6.476,9.891c43.928,9.51,82.184,35.277,107.717,72.556c0.035,0.052,0.071,0.103,0.108,0.154     c2.896,4.418,6.65,8.057,10.966,10.759c-0.339,1.847-0.517,3.732-0.517,5.65v76.015h-8.059c-14.128,0-25.62,11.493-25.62,25.621     c0,14.128,11.493,25.622,25.62,25.622h41.539h62.783c0.147,0,0.29-0.015,0.435-0.022h20.852c0.287,0.01,0.575,0.022,0.866,0.022     h141.902c4.652,0,8.423-3.77,8.423-8.423v-52.134c39.39-12.683,66.355-49.263,66.355-91.232V227.53     c0-27.862,18.797-52.267,45.708-59.35c2.456-0.646,4.49-2.366,5.534-4.681C512.299,161.185,512.243,158.523,511.103,156.254z      M270.338,218.274c-34.336,9.036-65.163,27.268-89.561,52.7h-8.403c5.999-44.207,26.56-84.953,58.664-116.244     C249.671,171.294,263.636,193.166,270.338,218.274z M238.517,81.427l6.455,63.211c-1.782-1.665-3.606-3.287-5.469-4.863     l-3.694-36.182c-0.296-2.905-2.078-5.45-4.706-6.724c-2.629-1.273-5.729-1.096-8.193,0.472L196.242,114.3     c-1.999-0.756-4.017-1.469-6.053-2.138L238.517,81.427z M221.22,126.552c-2.208-1.353-4.447-2.657-6.726-3.896l5.943-3.779     L221.22,126.552z M50.35,81.427l48.329,30.733c-2.036,0.67-4.054,1.382-6.053,2.138L65.957,97.341     c-2.465-1.568-5.566-1.745-8.193-0.472c-2.628,1.275-4.409,3.818-4.706,6.724l-3.694,36.181     c-1.862,1.577-3.687,3.198-5.469,4.863L50.35,81.427z M74.373,122.656c-2.279,1.239-4.519,2.541-6.726,3.896l0.784-7.675     L74.373,122.656z M108.089,270.974c-24.397-25.431-55.225-43.664-89.562-52.7c6.701-25.109,20.666-46.981,39.3-63.543     c32.105,31.288,52.665,72.037,58.665,116.244H108.089z M71.245,144.283c21.048-14.316,46.345-22.612,73.187-22.612     c26.843,0,52.139,8.296,73.188,22.613c-34.399,34.237-56.214,78.643-62.22,126.69h-21.933     C127.46,222.928,105.646,178.523,71.245,144.283z M122.499,287.82h43.866c-1.918,2.52-3.786,5.089-5.591,7.714     c-0.122,0.164-0.238,0.331-0.349,0.503c-3.513,5.488-9.492,8.764-15.993,8.764c-6.508,0-12.489-3.28-16.001-8.774     c-0.117-0.184-0.241-0.362-0.373-0.537C126.264,292.881,124.406,290.326,122.499,287.82z M169.387,311.513     c-1.15,3.238-1.782,6.72-1.782,10.349v76.015h-1.518v-83.518C167.239,313.481,168.341,312.533,169.387,311.513z M134.325,432.275     h-17.468c-4.839,0-8.774-3.937-8.774-8.777s3.936-8.776,8.774-8.776h16.482c0.343,0,0.678-0.026,1.011-0.066     c-1.017,2.757-1.573,5.735-1.573,8.842C132.776,426.58,133.324,429.536,134.325,432.275z M149.24,399.575     c-2.753,1.057-5.276,2.575-7.478,4.462v-82.174c0-0.109,0.016-0.213,0.018-0.321c0.879,0.064,1.762,0.107,2.653,0.107     c1.623,0,3.228-0.116,4.808-0.328V399.575z M212.757,432.275h-54.359c-4.839,0-8.774-3.937-8.774-8.777s3.936-8.776,8.774-8.776     h17.63c4.652,0,8.423-3.77,8.423-8.423v-84.438c0-7.804,6.349-14.154,14.153-14.154c7.804,0,14.154,6.35,14.154,14.154V432.275z      M198.604,290.863c-6.482,0-12.504,2.004-17.485,5.419c25.146-32.202,60.363-54.52,100.332-63.36     c28.36,14.787,50.656,38.516,63.606,67.285c-8.856-3.549-18.507-5.521-28.615-5.521c-42.577,0-77.215,34.641-77.215,77.219     c0,8.878,1.537,17.671,4.503,25.973h-0.398c-5.049,0-9.757,1.475-13.729,4.005v-80.02     C229.602,304.769,215.697,290.863,198.604,290.863z M376.811,432.275L376.811,432.275H243.332c-4.839,0-8.776-3.937-8.776-8.777     s3.936-8.776,8.776-8.776h13.543c3.011,0,5.793-1.607,7.297-4.215c1.504-2.609,1.502-5.822-0.007-8.427     c-5.294-9.148-8.094-19.584-8.094-30.176c0-33.291,27.082-60.373,60.37-60.373c33.288,0,60.371,27.082,60.371,60.373V432.275z      M443.166,297.331c0,32.738-19.898,61.497-49.54,73.351c-0.348-22.174-10.067-42.11-25.387-55.993     c-0.477-1.667-0.977-3.324-1.506-4.969c0.984-4.041,1.49-8.194,1.49-12.388V195.619c15.863,23.666,42.819,38.722,72.485,38.722     c0.813,0,1.635-0.02,2.457-0.044V297.331z M443.834,217.411c-1.051,0.049-2.096,0.082-3.125,0.082     c-30.907,0-58.166-20.245-67.218-49.555c3.448-8.218,8.526-15.749,15.078-22.153c12.675-12.39,29.419-19.213,47.148-19.213     c22.377,0,42.813,10.842,55.336,28.843C465.474,166.16,447.424,189.837,443.834,217.411z" fill="#FFFFFF"/>
		</g>
	</g>
</g>
<g>
</g>
<g>
</g>
<g>
</g>
<g>
</g>
<g>
</g>
<g>
</g>
<g>
</g>
<g>
</g>
<g>
</g>
<g>
</g>
<g>
</g>
<g>
</g>
<g>
</g>
<g>
</g>
<g>
</g>
</svg>
