<?xml version="1.0" encoding="iso-8859-1"?>
<!-- Generator: Adobe Illustrator 19.0.0, SVG Export Plug-In . SVG Version: 6.00 Build 0)  -->
<svg xmlns="http://www.w3.org/2000/svg" xmlns:xlink="http://www.w3.org/1999/xlink" version="1.1" id="Layer_1" x="0px" y="0px" viewBox="0 0 512.001 512.001" style="enable-background:new 0 0 512.001 512.001;" xml:space="preserve" width="512px" height="512px">
<g>
	<g>
		<path d="M510.854,203.155c-0.128-0.218-12.873-22.023-16.692-41.594c-4.423-22.668-22.807-30.217-30.186-32.363l-5.032-20.127    V92.406c0-4.58-3.712-8.29-8.29-8.29c-4.578,0-8.29,3.711-8.29,8.29v14.988c-12.349,16.716-33.363,38.623-44.767,38.623    c-16.153,0-26.078-5.421-37.57-11.697c-12.729-6.952-27.157-14.832-50.859-14.832c-6.749,0-15.074,1.177-24.714,2.542    c-23.631,3.344-55.995,7.924-87.736-2.153c-40.783-12.945-83.975-4.51-97.703-1.2c-6.737-5.223-22.286-15.052-45.656-16.849    c-5.956-0.459-12.053-1.571-17.95-2.647c-7.197-1.313-13.403-2.448-18.767-2.327c-12.493,0.28-15.518,8.138-16.24,11.502    c-1.519,7.089,1.35,15.991,7.673,23.814c6.516,8.061,22.132,21.585,53.491,21.585c6.746,0,8.707,5.959,9.264,9.016    c-3.92,18.165-4.643,63.545,16.212,97.65c-20.066,30.151-39.432,46.526-39.628,46.69c-1.467,1.221-2.466,2.913-2.831,4.786    c-4.366,22.459-7.63,56.61-8.643,67.916l-17.412,13.06c-5.83,4.373-8.442,11.515-6.816,18.638    c1.607,7.043,6.989,12.284,14.046,13.678c4.587,0.905,8.996,1.353,13.203,1.353c16.54-0.001,29.919-6.925,38.419-20.149    c4.556-7.088,10.189-30.836,14.172-49.834l41.909,55.718c0.055,0.073,0.112,0.146,0.168,0.217    c7.878,9.782,19.599,15.392,32.158,15.392h28.42c4.578,0,8.29-3.711,8.29-8.29v-8.843c0-18.66-24.854-24.016-35.817-25.47    l-34.256-64.908c18.021-10.326,31.957-22.199,41.702-35.555c15.725,3.549,34.358,4.772,51.445,4.772    c13.791,0,26.553-0.795,35.959-1.798c-5.204,25.31,1.005,50.201,4.223,63.07c2.372,9.492-1.781,20.052-5.118,28.537    c-1.906,4.844-3.55,9.026-3.932,12.841c-0.302,3.015-1.219,12.191,30.012,34.137c1.396,0.98,3.06,1.507,4.766,1.507h26.529    c3.678,0,6.915-2.422,7.953-5.95c0.222-0.754,2.117-7.619,0.355-16.488c-1.481-7.458-5.855-17.725-18.048-26.031    c1.356-9.26,8.619-34.489,17.287-61.792c29.249,10.573,60.019,22.359,70.342,27.296c0.054,10.192,5.141,21.711,12.831,27.834    c4.161,3.314,8.894,4.997,13.73,4.997c3.219-0.001,6.483-0.747,9.652-2.256c8.511-4.052,15.645-15.645,17.348-28.194    c1.696-12.497-2.233-23.594-11.06-31.245c-2.265-1.962-9.906-7.498-23.218-17.112c-13.765-9.942-35.435-25.595-43.584-32.276    c7.797-6.798,15.908-14.913,23.583-24.415c5.101,0.787,10.094,1.142,14.964,1.141c14.785,0,28.485-3.073,40.956-5.873    c9.584-2.15,18.635-4.182,26.084-4.182c21.286,0,33.269-21.042,33.769-21.938C512.385,208.833,512.346,205.692,510.854,203.155z     M154.084,396.936c1.339,2.536,3.903,4.202,6.765,4.4c11.285,0.788,25.07,5.287,25.07,9.416v0.553h-20.13    c-7.473,0-14.452-3.319-19.165-9.112L97.31,336.63c7.211-2.707,14.015-5.575,20.407-8.601L154.084,396.936z M405.47,312.386    c9.954,7.189,20.248,14.624,22.068,16.201c5.714,4.951,6.139,11.698,5.489,16.485c-1.122,8.273-5.762,14.365-8.046,15.453    c-2.222,1.058-3.937,0.841-5.925-0.742c-4.799-3.822-7.408-12.557-6.368-17.24c1.518-6.831-4.856-10.121-7.577-11.527    c-2.277-1.176-5.445-2.622-9.685-4.425c-6.82-2.898-16.348-6.679-28.32-11.235c-14.507-5.521-29.191-10.882-36.459-13.518    c0.986-3.008,1.977-6.009,2.97-8.984c4.706-2.428,13.897-7.558,24.856-15.652C364.255,282.405,377.879,292.458,405.47,312.386z     M477.182,216.76c-9.287,0-19.21,2.227-29.716,4.585c-12.812,2.875-27.045,6.054-41.742,5.331c0.636-3.183-0.641-6.58-3.503-8.506    c-3.799-2.556-8.951-1.546-11.506,2.254c-26.998,40.15-66.915,58.805-67.305,58.984c-2.088,0.952-3.688,2.727-4.418,4.902    c-0.08,0.238-8.044,23.971-15.272,47.761c-4.271,14.056-7.462,25.412-9.485,33.756c-3.231,13.322-4.865,21.685,1.974,25.594    c11.101,6.344,13.85,14.434,14.275,19.883h-16.346c-9.56-6.945-18.535-14.947-20.727-18.479c0.474-1.821,1.619-4.73,2.652-7.356    c3.982-10.123,9.433-23.987,5.773-38.628c-4.041-16.166-13.505-54.024,7.389-81.387c2.779-3.639,2.081-8.842-1.557-11.621    c-3.638-2.78-8.842-2.08-11.621,1.557c-3.686,4.828-6.601,9.855-8.914,14.976c-15.1,2.384-54.394,4.801-84.079-0.643    c0.621-1.337,1.22-2.683,1.77-4.046c13.35-33.125-0.314-60.883-0.901-62.048c-2.063-4.087-7.049-5.729-11.137-3.665    c-4.088,2.063-5.729,7.049-3.667,11.135c0.111,0.219,10.899,22.143,0.325,48.38c-10.708,26.568-39.002,48.055-84.096,63.863    c-2.81,0.986-4.876,3.402-5.412,6.333c-5.289,28.911-12.909,62.157-16.505,67.753c-6.926,10.775-18.519,14.645-34.464,11.496    c-0.241-0.048-0.881-0.174-1.092-1.099c-0.111-0.481-0.095-1.165,0.599-1.685l20.376-15.282c1.895-1.42,3.091-3.584,3.287-5.944    c0.035-0.423,3.454-41.073,8.2-67.09c6.4-5.788,24.948-23.742,43.585-52.938c1.801-2.821,1.729-6.448-0.182-9.194    c-21.935-31.535-19.733-77.392-16.449-90.53c0.225-0.9,0.297-1.831,0.214-2.753c-0.056-0.628-0.642-6.302-3.785-12.067    c-4.627-8.49-12.496-13.166-22.158-13.166c-8.456,0-29.34-1.503-40.597-15.429c-2.762-3.417-3.931-6.476-4.277-8.34    c3.545-0.135,10.721,1.171,15.74,2.087c6.019,1.098,12.84,2.342,19.653,2.866c20.03,1.542,34.285,10.693,38.989,15.283    c2.137,2.136,5.267,2.943,8.17,2.099c0.484-0.14,48.932-13.88,92.456-0.061c35.34,11.221,69.867,6.335,95.076,2.767    c9.02-1.276,16.809-2.378,22.39-2.378c19.47,0,30.856,6.219,42.911,12.804c12.356,6.747,25.133,13.725,45.518,13.725    c11.449,0,24.73-8.069,40.603-24.667c3.105-3.248,5.978-6.482,8.504-9.456l4.751,19.001c1.11,4.441,5.61,7.137,10.053,6.032    c2.631-0.658,4.643-2.509,5.622-4.829c4.44,2.913,9.158,7.85,10.76,16.06c3.265,16.735,11.75,34.05,16.078,42.153    C490.789,210.88,484.814,216.76,477.182,216.76z" fill="#FFFFFF"/>
	</g>
</g>
<g>
</g>
<g>
</g>
<g>
</g>
<g>
</g>
<g>
</g>
<g>
</g>
<g>
</g>
<g>
</g>
<g>
</g>
<g>
</g>
<g>
</g>
<g>
</g>
<g>
</g>
<g>
</g>
<g>
</g>
</svg>
