<?xml version="1.0" encoding="iso-8859-1"?>
<!-- Generator: Adobe Illustrator 19.0.0, SVG Export Plug-In . SVG Version: 6.00 Build 0)  -->
<svg xmlns="http://www.w3.org/2000/svg" xmlns:xlink="http://www.w3.org/1999/xlink" version="1.1" id="Layer_1" x="0px" y="0px" viewBox="0 0 512 512" style="enable-background:new 0 0 512 512;" xml:space="preserve" width="512px" height="512px">
<g>
	<g>
		<g>
			<path d="M77.345,94.774c-6.007,0-10.894,4.887-10.894,10.894c0,3.008,2.439,5.447,5.447,5.447s5.447-2.439,5.447-5.447     c3.008,0,5.447-2.439,5.447-5.447C82.791,97.214,80.352,94.774,77.345,94.774z" fill="#FFFFFF"/>
			<path d="M484.766,114.383h-6.575c-24.975-27.726-60.484-43.574-97.858-43.574H124.187v-5.447c0-9.01-7.33-16.34-16.34-16.34     c-2.675,0-5.31,0.657-7.66,1.904c-1.966-1.059-4.17-1.718-6.513-1.869c-4.572-0.292-8.921,1.26-12.251,4.383     c-3.283,3.077-5.167,7.424-5.167,11.923v8.091L24.124,110.69c-0.035,0.024-0.069,0.048-0.102,0.073l-8.824,6.303     C5.681,123.863,0,134.903,0,146.598c0,12.382,6.213,23.783,16.617,30.496l151.044,97.449l-23.637,126.063     c0,0-2.409,13.016-2.409,13.352c0,3.003-2.443,5.447-5.447,5.447h-21.787c-15.017,0-27.234,12.217-27.234,27.234     c0,9.01,7.33,16.34,16.34,16.34h133.901c20.848,0,37.842-16.821,38.126-37.603l13.591-72.485l19.846,12.804     c14.983,9.666,32.103,16.272,49.743,19.221l4.51,28.181c0.256,1.6-0.182,3.161-1.234,4.394s-2.524,1.913-4.145,1.913h-14.677     c-15.017,0-27.234,12.217-27.234,27.234c0,9.01,7.33,16.34,16.34,16.34h141.617c21.024,0,38.128-17.104,38.128-38.128V141.617     C512,126.6,499.783,114.383,484.766,114.383z M113.294,65.362v5.447h-4.357v-5.073c0-2.041-0.361-4.003-1.022-5.819     C110.887,59.952,113.294,62.381,113.294,65.362z M10.898,147.064c-0.002-0.156-0.004-0.312-0.004-0.467     c0-8.184,3.976-15.91,10.635-20.667l0.258-0.184v15.872c0,3.003-2.443,5.447-5.447,5.447H10.898z M145.727,452.085h-42.238     c-3.003,0-5.447-2.443-5.447-5.447c0-9.01,7.33-16.34,16.34-16.34h21.787c8.825,0,16.038-7.031,16.331-15.785L177.55,280.92     l42.702,27.55l-20.884,104.42c-0.07,0.352-0.106,0.709-0.106,1.068c0,3.003-2.443,5.447-5.447,5.447h-21.787     c-15.017,0-27.234,12.217-27.234,27.234C144.795,448.548,145.124,450.381,145.727,452.085z M501.106,245.39     c-12.485,1.302-24.225,7.039-32.838,16.187c-23.068,24.503-54.298,37.998-87.937,37.998c-23.276,0-45.917-6.67-65.475-19.288     l-151.44-97.703c-31.406-20.262-65.94-34.117-102.642-41.179c-2.957-0.565-5.81,1.365-6.378,4.319s1.366,5.81,4.319,6.378     c35.327,6.798,68.565,20.133,98.795,39.635l151.439,97.703c21.323,13.756,46.006,21.028,71.381,21.028     c36.672,0,70.719-14.712,95.869-41.424c6.56-6.968,15.424-11.438,24.905-12.687v168.494c0,15.017-12.217,27.234-27.234,27.234     h-65.362h-10.894c-3.003,0-5.447-2.443-5.447-5.447c0-9.01,7.33-16.34,16.34-16.34h14.677c4.792,0,9.325-2.092,12.434-5.738     c3.109-3.646,4.459-8.451,3.693-13.237l-10.873-63.886c-0.504-2.965-3.308-4.961-6.283-4.455     c-2.966,0.504-4.961,3.318-4.456,6.283l10.864,63.832c0.256,1.6-0.182,3.161-1.234,4.394c-1.052,1.233-2.524,1.912-4.145,1.912     h-14.677c-15.017,0-27.234,12.217-27.234,27.234c0,1.909,0.329,3.743,0.932,5.447h-49.954c-3.003,0-5.447-2.443-5.447-5.447     c0-9.01,7.33-16.34,16.34-16.34h14.677c4.792,0,9.325-2.092,12.434-5.738c3.109-3.646,4.459-8.451,3.702-13.185l-4.13-25.804     h23.791c3.009,0,5.447-2.439,5.447-5.447c0-3.008-2.438-5.447-5.447-5.447h-29.807c-17.355-2.398-34.276-8.665-48.957-18.138     l-26.745-17.254c-1.679-1.083-3.816-1.159-5.569-0.2c-1.748,0.956-2.835,2.792-2.831,4.786l-14.995,79.976     c-0.063,0.331-0.094,0.667-0.094,1.003c0,15.017-12.217,27.234-27.234,27.234h-76.255c-3.003,0-5.447-2.443-5.447-5.447     c0-9.01,7.33-16.34,16.34-16.34h21.787c8.812,0,16.017-7.011,16.33-15.748l19.947-99.731l19.975,12.887     c2.527,1.631,5.899,0.904,7.53-1.624c1.631-2.527,0.903-5.899-1.624-7.53L22.523,167.939c-3.903-2.518-6.963-5.978-8.962-9.982     h2.78c9.01,0,16.34-7.33,16.34-16.34v-23.652l49.907-35.647c2.856-2.04,4.561-5.354,4.561-8.865v-8.091     c0-1.522,0.612-2.934,1.723-3.975c1.11-1.04,2.56-1.558,4.097-1.46c2.797,0.181,5.073,2.787,5.073,5.808v5.073     c0,6.007,4.887,10.894,10.894,10.894h271.396c35.116,0,68.436,15.252,91.417,41.846c0.945,1.094,2.286,1.767,3.727,1.872     c0.574,0.041,9.29-0.143,9.29-0.143c9.01,0,16.34,7.33,16.34,16.34V245.39z" fill="#FFFFFF"/>
		</g>
	</g>
</g>
<g>
</g>
<g>
</g>
<g>
</g>
<g>
</g>
<g>
</g>
<g>
</g>
<g>
</g>
<g>
</g>
<g>
</g>
<g>
</g>
<g>
</g>
<g>
</g>
<g>
</g>
<g>
</g>
<g>
</g>
</svg>
