<?xml version="1.0" encoding="utf-8"?>
<!-- Generator: Adobe Illustrator 21.0.2, SVG Export Plug-In . SVG Version: 6.00 Build 0)  -->
<svg version="1.1" id="Capa_1" xmlns="http://www.w3.org/2000/svg" xmlns:xlink="http://www.w3.org/1999/xlink" x="0px" y="0px"
	 viewBox="0 0 512 512" style="enable-background:new 0 0 512 512;" xml:space="preserve">
<style type="text/css">
	.st0{fill:#40DD74;}
	.st1{fill:#8D9091;}
</style>
<g>
	<path class="st0" d="M68.3,187.7C30.6,187.7,0,218.4,0,256s30.6,68.3,68.3,68.3s68.3-30.6,68.3-68.3S105.9,187.7,68.3,187.7z"/>
	<path class="st1" d="M443.7,187.7c-37.6,0-68.3,30.6-68.3,68.3s30.6,68.3,68.3,68.3S512,293.6,512,256S481.4,187.7,443.7,187.7z"/>
	<path class="st1" d="M256,187.7c-37.6,0-68.3,30.6-68.3,68.3s30.6,68.3,68.3,68.3s68.3-30.6,68.3-68.3S293.6,187.7,256,187.7z"/>
</g>
</svg>
