<?xml version="1.0" encoding="iso-8859-1"?>
<!-- Generator: Adobe Illustrator 19.0.0, SVG Export Plug-In . SVG Version: 6.00 Build 0)  -->
<svg xmlns="http://www.w3.org/2000/svg" xmlns:xlink="http://www.w3.org/1999/xlink" version="1.1" id="Layer_1" x="0px" y="0px" viewBox="0 0 512 512" style="enable-background:new 0 0 512 512;" xml:space="preserve" width="512px" height="512px">
<g>
	<g>
		<g>
			<path d="M466.322,183.931l-238.943-70.798c-1.487-0.44-2.679-1.452-3.355-2.848c-0.677-1.397-0.731-2.958-0.155-4.398     l5.292-13.23c1.476-3.693,0.875-7.75-1.611-10.854c-2.485-3.105-6.316-4.58-10.238-3.946l-26.403,4.258l-4.56-18.238     c-1.529-6.115-7.405-10.119-13.665-9.305c-5.014,0.649-9.236,4.495-10.505,9.571l-4.222,16.887l-4.289-17.153     c-1.385-5.54-6.341-9.41-12.052-9.41c-5.71,0-10.667,3.869-12.052,9.412l-8.246,32.987     c-26.547,10.851-49.117,30.028-64.186,55.143c-0.27,0.449-0.472,0.934-0.602,1.436l-31.197,12.48     c-0.082,0.029-0.161,0.062-0.241,0.096l-7.973,3.189C6.719,173.37,0,183.296,0,194.497v7.036c0,9.01,7.33,16.34,16.34,16.34     h81.318c1.826,0,3.52,0.907,4.533,2.426l26.705,40.057c0.008,0.01,0.015,0.021,0.022,0.032l11.231,16.846     c6.24,9.36,14.166,17.31,23.256,23.521V424.9c-5.706,0.44-10.737,3.798-13.329,8.983l-7.883,15.765     c-0.844,1.69-0.754,3.694,0.239,5.3c0.992,1.607,2.745,2.584,4.633,2.584h82.815c5.103,0,9.468-3.473,10.615-8.444     l30.732-133.173h31.749l44.906,109.056c-5.41,0.655-10.131,3.945-12.615,8.912l-7.883,15.765c-0.844,1.69-0.754,3.694,0.239,5.3     c0.992,1.607,2.745,2.584,4.633,2.584h59.961c3.015,0,5.785-1.381,7.6-3.788c1.816-2.406,2.381-5.45,1.553-8.349l-11.92-41.721     c-5.424-18.982-8.173-38.616-8.173-58.358v-24.433l42.86,104.089c-5.41,0.655-10.131,3.945-12.615,8.912l-7.883,15.765     c-0.844,1.69-0.754,3.694,0.239,5.3c0.992,1.607,2.745,2.584,4.633,2.584h59.961c3.015,0,5.785-1.381,7.6-3.788     c1.816-2.406,2.381-5.45,1.553-8.349l-7.539-26.389c-8.257-28.901-10.289-58.643-6.038-88.4l3.336-23.346     c0.35-0.192,0.697-0.385,1.043-0.582v31.023c0,25.758,8.511,51.291,23.966,71.898c2.861,3.816,7.634,5.306,12.159,3.799     c4.525-1.508,7.449-5.566,7.449-10.335V245.106C512,217.056,493.216,191.9,466.322,183.931z M140.133,66.52     c0.17-0.681,0.78-1.158,1.484-1.158c0.704,0,1.314,0.477,1.484,1.157l5.605,22.42c-5.119,0.909-10.15,2.106-15.071,3.579     L140.133,66.52z M21.165,179.324l0.622-0.25v0.67c0,3.003-2.443,5.447-5.447,5.447h-2.56     C15.565,182.614,18.099,180.551,21.165,179.324z M182.755,433.884l-6.377,12.754h-20.501l3.941-7.882     c0.929-1.857,2.795-3.011,4.872-3.011c5.298,0,9.608-4.31,9.608-9.607V307.094c6.857,3.35,14.177,5.806,21.787,7.264v110.543     C190.379,425.341,185.348,428.699,182.755,433.884z M390.396,446.638h-49.327l3.94-7.883c0.929-1.857,2.795-3.011,4.872-3.011     c3.183,0,6.141-1.578,7.911-4.222c1.77-2.644,2.105-5.98,0.893-8.923l-43.929-106.684h24.397c3.008,0,5.447-2.439,5.447-5.447     c0-3.008-2.439-5.447-5.447-5.447h-32.409c-0.083-0.002-0.163-0.002-0.247,0h-21.573l35.654-23.701     c8.835-5.874,19.112-8.979,29.721-8.979c6.669,0,12.607,3.99,15.128,10.164l5.116,12.529c-0.105,0.42-0.16,0.862-0.16,1.316     v48.967c0,20.755,2.891,41.396,8.593,61.35L390.396,446.638z M459.975,298.835c-1.611,0.795-2.728,2.335-2.982,4.115     l-3.731,26.116c-4.469,31.283-2.332,62.55,6.349,92.933l7.039,24.639h-49.327l3.941-7.883c0.929-1.857,2.795-3.011,4.872-3.011     c3.183,0,6.141-1.578,7.911-4.222s2.105-5.979,0.893-8.923l-47.026-114.204c-0.157-0.38-0.354-0.736-0.584-1.063l-11.82-28.945     c-4.202-10.289-14.099-16.938-25.213-16.938c-12.762,0-25.124,3.734-35.752,10.8l-50.642,33.668     c-0.056,0.036-0.112,0.074-0.167,0.113c-1.134,0.805-1.87,1.971-2.157,3.238l-31.702,137.372h-41.322l3.941-7.883     c0.929-1.857,2.795-3.011,4.872-3.011c5.298,0,9.608-4.311,9.608-9.608V309.728c0-2.727-2.018-5.033-4.719-5.398     c-21.616-2.917-40.951-14.996-53.048-33.141l-8.471-12.707c10.645-9.569,19.614-20.554,26.787-32.801l3.417,10.253     c0.742,2.224,2.824,3.725,5.168,3.725c23.026,0,41.759-18.733,41.759-41.758v-9.078c0-8.009-6.516-14.524-14.524-14.524H49.021     c-3.008,0-5.447,2.439-5.447,5.447c0,3.008,2.439,5.447,5.447,5.447h154.327c2.001,0,3.631,1.629,3.631,3.631v9.078     c0,15.716-11.809,28.728-27.018,30.628l-6.141-18.423c-0.706-2.116-2.63-3.587-4.855-3.716c-2.223-0.124-4.305,1.113-5.249,3.134     c-7.07,15.148-16.839,28.509-29.087,39.792l-23.373-35.061c-3.037-4.557-8.12-7.277-13.596-7.277H16.34     c-3.003,0-5.447-2.443-5.447-5.447v-5.447h5.447c9.01,0,16.34-7.33,16.34-16.34v-5.027l28.926-11.57     c2.85-1.141,4.861-3.595,5.459-6.511c18.806-30.701,49.898-51.56,85.484-57.3l9.021-1.454c2.151-0.346,3.889-1.942,4.417-4.056     l6.761-27.04c0.185-0.741,0.746-1.333,1.333-1.41c0.796-0.097,1.509,0.379,1.701,1.144l5.773,23.09     c0.685,2.744,3.358,4.509,6.151,4.056l31.341-5.055l-5.292,13.23c-1.703,4.257-1.533,9.066,0.466,13.192     c1.999,4.127,5.667,7.241,10.064,8.544l238.943,70.798c21.901,6.489,37.316,26.721,37.864,49.476l-14.026,28.051     C481.258,283.517,471.638,293.082,459.975,298.835z M501.101,403.057c-9.151-12.204-15.624-26.308-19.024-41.131     c1.372,1.545,2.8,3.06,4.283,4.544c2.128,2.126,5.575,2.126,7.703,0c2.128-2.126,2.128-5.575,0-7.703     c-5.974-5.974-10.931-12.497-14.731-19.39c-0.009-0.559-0.013-1.117-0.013-1.675V299.04c7.232-6.156,13.229-13.745,17.491-22.267     l4.296-8.592L501.101,403.057z" fill="#FFFFFF"/>
			<path d="M114.383,141.617c-9.01,0-16.34,7.33-16.34,16.34c0,3.008,2.439,5.447,5.447,5.447s5.447-2.439,5.447-5.447     c0-3.003,2.443-5.447,5.447-5.447c3.008,0,5.447-2.439,5.447-5.447S117.391,141.617,114.383,141.617z" fill="#FFFFFF"/>
			<path d="M433.641,216.612l-238.943-70.798c-1.487-0.44-2.678-1.452-3.355-2.848c-0.677-1.397-0.731-2.958-0.155-4.398     l5.292-13.23c1.476-3.693,0.875-7.75-1.611-10.854c-2.485-3.105-6.311-4.579-10.238-3.946l-66.497,10.725     c-2.97,0.478-4.989,3.275-4.51,6.244c0.478,2.971,3.277,4.986,6.244,4.51l66.497-10.725l-5.292,13.23     c-1.703,4.257-1.533,9.066,0.466,13.192c1.999,4.126,5.667,7.241,10.063,8.544l238.943,70.798     c0.516,0.154,1.037,0.227,1.549,0.227c2.35,0,4.519-1.533,5.22-3.901C438.171,220.498,436.525,217.467,433.641,216.612z" fill="#FFFFFF"/>
		</g>
	</g>
</g>
<g>
</g>
<g>
</g>
<g>
</g>
<g>
</g>
<g>
</g>
<g>
</g>
<g>
</g>
<g>
</g>
<g>
</g>
<g>
</g>
<g>
</g>
<g>
</g>
<g>
</g>
<g>
</g>
<g>
</g>
</svg>
